<svg version="1.1" xmlns="http://www.w3.org/2000/svg" width="100%" viewBox="0 0 225 225" aria-label="Lysaker Info logo">
  <path fill="#B20101" d="M81.816376,149.865112 
    C63.762543,158.458420 43.515892,154.105820 31.448425,139.250671 
    C19.364182,124.374855 19.084681,103.896805 30.755995,88.518013 
    C41.882599,73.856956 61.865688,68.466530 78.567642,75.620850 
    C95.664238,82.944214 106.341217,100.730591 103.546486,117.507622 
    C101.769539,117.185875 99.968674,116.961571 98.221352,116.523651 
    C93.627266,115.372231 90.453194,114.097412 89.572182,107.822327 
    C87.406342,92.396004 70.731239,82.906944 55.571297,87.259483 
    C40.912624,91.468102 32.614285,107.548836 37.563740,122.154991 
    C42.636086,137.123810 58.962841,144.495010 73.496132,138.604584 
    C75.298264,137.874161 77.789154,138.096878 79.743668,138.648132 
    C83.505013,139.708984 87.110863,141.321182 91.771027,143.077866 
    C88.257240,145.509720 85.210899,147.618057 81.816376,149.865112 z"/>
  <path fill="#B20101" d="M127.120636,95.197876 
    C142.093506,69.985909 172.029495,64.957962 192.052567,83.966789 
    C207.918808,99.029343 208.831589,124.008698 194.126190,140.714188 
    C179.883987,156.893494 154.523788,158.911118 137.912476,145.178146 
    C137.170700,144.564896 136.493103,143.873993 135.567276,143.017227 
    C140.242584,141.125412 144.543381,139.225830 148.973282,137.701355 
    C150.122940,137.305756 151.778534,137.838181 153.028687,138.359406 
    C168.102249,144.643906 184.520493,137.105881 189.450974,121.570343 
    C194.167542,106.708832 185.144958,90.480827 170.228149,86.996216 
    C154.105194,83.229828 138.940582,93.509079 136.858002,109.853493 
    C136.460907,112.969994 135.246521,114.660889 132.319901,115.384918 
    C129.442215,116.096832 126.587822,116.902908 123.177803,117.813271 
    C121.904381,109.700012 123.629616,102.498665 127.120636,95.197876 z"/>
  <path fill="#B20101" d="M139.342468,134.440460 
    C121.310509,140.268692 103.594597,140.530655 86.233482,133.776947 
    C80.803474,131.664597 75.445999,128.366150 71.214790,124.379921 
    C62.399956,116.075470 63.703106,103.440300 74.060585,95.260315 
    C76.908173,98.474945 79.788483,101.726517 82.532021,104.823685 
    C77.900299,111.531395 78.627518,115.777695 85.457764,118.896797 
    C103.991974,127.360657 122.821114,127.353218 141.355194,118.923592 
    C148.262955,115.781822 148.988205,111.465919 144.305038,104.810204 
    C147.066406,101.706528 149.960220,98.453972 152.820206,95.239449 
    C163.077759,103.341667 164.427811,116.186119 155.611496,124.414864 
    C151.138855,128.589432 145.048920,131.031219 139.342468,134.440460 z"/>
  <path fill="#B20101" d="M103.777283,88.382355 
    C102.879105,86.970337 102.168480,85.871468 100.924614,83.948029 
    C109.436676,83.948029 117.243256,83.948029 125.531715,83.948029 
    C123.061134,88.557945 120.827583,92.725586 118.475876,97.113693 
    C115.232475,97.113693 111.777145,97.113693 108.339363,97.113693 
    C106.864632,94.275772 105.414734,91.485634 103.777283,88.382355 z"/>
</svg>
